<?xml version="1.0" encoding="utf-8"?>
<!-- Generator: Adobe Illustrator 25.3.1, SVG Export Plug-In . SVG Version: 6.00 Build 0)  -->
<svg version="1.1" id="Layer_1" xmlns="http://www.w3.org/2000/svg" xmlns:xlink="http://www.w3.org/1999/xlink" x="0px" y="0px"
	 viewBox="0 0 56 56" style="enable-background:new 0 0 56 56;" xml:space="preserve">
<style type="text/css">
	.st0{fill:#1E2E45;}
</style>
<path class="st0" d="M31.5,13h-7.1l-0.2-0.4c-0.3-0.5-0.6-1-1-1.5c-1.3-1.8-2.5-3.5-1.7-4.9c0.6-1.2,2.3-0.8,3.8-0.5
	c0.7,0.2,2,0.5,2.3,0.2c3-2.3,5-3,6.3-2.2c0.9,0.7,1.2,1.9,0.8,3c-0.4,1.2-0.9,2.4-1.7,3.5c-0.5,0.8-0.9,1.6-1.3,2.3L31.5,13z
	 M25.2,11.5h5.3c0.3-0.7,0.8-1.3,1.1-2c0.6-0.9,1.1-1.9,1.5-3c0.2-0.7,0.1-1.3-0.2-1.4s-1-0.5-4.6,2.2c-0.8,0.6-2.2,0.3-3.6,0
	C24.2,7,23.4,6.9,22.7,7c-0.3,0.6,0.8,2.1,1.7,3.3C24.6,10.7,24.9,11.1,25.2,11.5L25.2,11.5z"/>
<path class="st0" d="M25.4,13.2c0.1,0.3,0.2,0.7,0.2,1h4.9c0-0.3,0-0.7,0.1-1H25.4z"/>
<path class="st0" d="M28,43.2c-6.8,0-10.5-2.8-11-8.3l0,0c-0.4-4.3,2.2-8.9,4.5-12.9c1.5-2.5,2.8-4.9,3.3-6.9l0.1-0.6h6.4l0.1,0.6
	c0.4,2,1.8,4.4,3.3,7c2.3,4,4.9,8.5,4.5,12.8C38.5,40.4,34.8,43.2,28,43.2z M18.5,34.8c0.5,4.7,3.6,7,9.5,7s9.1-2.3,9.5-7
	c0.4-3.8-2-7.9-4.2-11.9c-1.4-2.1-2.5-4.4-3.3-6.9h-4c-0.8,2.4-1.9,4.7-3.3,6.8C20.4,26.8,18.1,30.9,18.5,34.8L18.5,34.8z
	 M29.7,37.1h-3.6v-1.5c-0.5-0.1-1-0.3-1.4-0.6l-0.9-0.6l1.3-3.6l1.5,1c0.3,0.2,0.6,0.3,1,0.3c-0.1-0.1-0.2-0.1-0.4-0.2
	c-0.8-0.3-3-1.2-3-3.5c0-1.3,0.8-2.5,2-3.1v-1.7h3.6V25c0.3,0.1,0.7,0.2,1,0.4l1,0.6l-1.3,3.3c0.8,0.7,1.2,1.7,1.1,2.7
	c0,1.4-0.8,2.7-2,3.3L29.7,37.1z M27.6,35.6h0.6v-1.3l0.5-0.2c0.9-0.3,1.5-1.1,1.5-2c0-1.3-0.7-1.8-1.9-2.3s-1.7-0.7-1.7-1.6
	c0-0.6,0.5-1.2,1.5-1.2c0.5,0,1,0.1,1.5,0.4l0.2-0.7c-0.3-0.2-0.7-0.3-1-0.4l-0.6-0.1V25h-0.6v1.3l-0.5,0.1c-0.8,0.2-1.4,1-1.5,1.9
	c0,1,0.6,1.6,2.1,2.1l0,0c1.1,0.5,1.5,1,1.5,1.7c0,0.8-0.7,1.4-1.5,1.4c0,0-0.1,0-0.1,0c-0.6,0-1.3-0.2-1.8-0.5l-0.2,0.7
	c0.4,0.2,0.9,0.4,1.3,0.5l0.6,0.1L27.6,35.6z"/>
<path class="st0" d="M11.1,43.1c-0.4,0-0.8-0.3-0.9-0.7l-0.6-3c-0.3-0.1-0.6-0.2-0.9-0.3l-2.5,1.8C6.1,40.9,5.9,41,5.7,41
	c-0.2,0-0.5-0.1-0.6-0.3l-2.6-2.5c-0.3-0.3-0.3-0.8-0.1-1.2L4,34.5c-0.1-0.3-0.3-0.6-0.4-0.9l-3-0.6c-0.4-0.1-0.7-0.5-0.8-1v-3.7
	c0.1-0.4,0.4-0.7,0.9-0.8l3-0.6c0.1-0.3,0.2-0.6,0.3-0.9l-1.8-2.5c-0.3-0.3-0.3-0.8,0-1.1l2.7-2.7c0.3-0.2,0.7-0.2,1,0l2.5,1.7
	c0.3-0.1,0.6-0.2,0.9-0.4l0.6-3c0.1-0.4,0.5-0.7,0.9-0.8h3.6c0.4,0,0.8,0.3,0.9,0.7l0.6,3c0.3,0.1,0.6,0.2,0.9,0.4l2.5-1.7
	c0.3-0.2,0.8-0.2,1.1,0l0.1,0.1l1.3,1.4l-0.3,0.5c-0.1,0.1-0.1,0.2-0.2,0.3v0.1c-1.1,1.8-2,3.7-2.9,5.6L18,29.1l-0.7-1.3
	c-0.1-0.2-0.2-0.4-0.4-0.5c-1.7-2.2-4.9-2.7-7.1-1c-2.2,1.7-2.7,4.9-1,7.1c1.7,2.2,4.9,2.7,7.1,1c0,0,0,0,0,0l1.1-0.8l0.1,1.3
	c0.1,1.1,0.4,2.1,0.8,3.1l0.9,2.1l-1.8-1c-0.3,0.1-0.6,0.3-0.9,0.4l-0.5,2.8c-0.1,0.4-0.4,0.7-0.9,0.8L11.1,43.1z M8.7,37.3l0.4,0.2
	c0.5,0.2,0.9,0.4,1.4,0.6l0.4,0.1l0.7,3.4h2.7l0.6-3.2l0.4-0.1c0.3-0.1,0.6-0.2,0.9-0.3c-0.2-0.5-0.4-1.1-0.5-1.7
	c-3.3,1.6-7.2,0.3-8.8-3s-0.3-7.2,3-8.8c2.7-1.3,5.9-0.7,7.8,1.5c0.7-1.5,1.5-3.1,2.4-4.5L20,21.3l-2.9,1.9L16.7,23
	c-0.5-0.2-0.9-0.4-1.4-0.6l-0.4-0.1l-0.7-3.4h-2.7l-0.7,3.4l-0.4,0.1c-0.5,0.2-1,0.4-1.4,0.6l-0.4,0.2l-2.9-2l-1.8,1.9l2,2.9
	l-0.2,0.4c-0.2,0.5-0.4,0.9-0.6,1.4l-0.1,0.4L1.4,29v2.7l3.4,0.7l0.1,0.4c0.2,0.5,0.3,1,0.6,1.5l0.2,0.4l-1.9,2.8l1.9,1.9L8.7,37.3z
	 M6.1,39.6L6.1,39.6z M1.4,32L1.4,32z M3.6,22.7L3.6,22.7C3.6,22.8,3.6,22.7,3.6,22.7z"/>
<path class="st0" d="M41.5,43.2c-0.4,0-0.8-0.3-0.9-0.8l-0.6-3c-0.3-0.1-0.6-0.2-0.9-0.4l-1.7,1l0.9-2.1c0.4-1,0.7-2.1,0.8-3.2
	l0.1-1.3l1.1,0.8c0.2,0.1,0.3,0.2,0.5,0.3c2.4,1.3,5.5,0.4,6.8-2c1.3-2.4,0.4-5.5-2-6.8c-1.1-0.6-2.4-0.8-3.6-0.5
	c-1.3,0.4-2.4,1.2-3,2.4L38.1,29l-0.6-1.3c-0.9-1.9-1.8-3.8-2.9-5.6V22c-0.1-0.1-0.1-0.2-0.2-0.3L34,21.2l1.4-1.4
	c0.3-0.2,0.8-0.2,1.1,0l2.5,1.6c0.3-0.1,0.6-0.3,0.9-0.4l0.6-3c0.1-0.5,0.5-0.8,1-0.8h3.6c0.5,0,0.8,0.3,0.9,0.8l0.6,3
	c0.3,0.1,0.6,0.2,0.8,0.4l2.5-1.7c0.3-0.2,0.8-0.2,1.1,0l0.1,0.1l2.7,2.5c0.3,0.3,0.4,0.9,0.1,1.2L52.1,26c0.1,0.3,0.2,0.6,0.4,0.9
	l3.1,0.6l0.1,0.1c0.3,0.2,0.4,0.5,0.4,0.8v3.7c0,0.4-0.3,0.8-0.7,0.9l-3,0.6c-0.1,0.3-0.2,0.6-0.4,0.9l1.8,2.5
	c0.3,0.4,0.2,0.8-0.1,1.2l-2.6,2.6c-0.3,0.3-0.9,0.4-1.2,0.1l-2.5-1.7c-0.3,0.1-0.5,0.2-0.8,0.3l-0.6,3c-0.1,0.4-0.4,0.7-0.9,0.8
	L41.5,43.2z M44.5,42.1C44.5,42.1,44.5,42.1,44.5,42.1L44.5,42.1z M39.9,37.8c0.3,0.1,0.6,0.2,0.9,0.3l0.4,0.1l0.7,3.4h2.6l0.7-3.4
	l0.4-0.1c0.5-0.1,1-0.3,1.4-0.6l0.4-0.2l2.9,2l1.9-1.9l-2-2.9l0.2-0.4c0.3-0.5,0.5-0.9,0.6-1.5l0.1-0.4l3.4-0.7v-2.7l-3.3-0.7
	l-0.1-0.4c-0.2-0.5-0.4-1-0.6-1.5l-0.2-0.4l2-2.9l-2-1.9l-2.9,2L47.1,23c-0.5-0.2-0.9-0.4-1.4-0.6l-0.4-0.1l-0.7-3.5h-2.6l-0.7,3.4
	l-0.4,0.1c-0.5,0.1-1,0.4-1.5,0.6L39,23.1l-2.9-1.9l-0.2,0.2c0.9,1.5,1.7,3,2.4,4.5c2.1-2.3,5.4-2.9,8.1-1.3
	c3.1,1.8,4.2,5.8,2.4,8.9c-1.7,3-5.4,4.1-8.5,2.6C40.3,36.7,40.1,37.3,39.9,37.8z M52.5,37.8c0,0,0,0.1,0.1,0.1L52.5,37.8z
	 M54.6,32.1L54.6,32.1z M35.7,21L35.7,21z M41.5,18.8L41.5,18.8z M45,18.8L45,18.8z M44.5,18.4L44.5,18.4z"/>
<path class="st0" d="M27.8,52.5c-2.3,0-4.5-0.4-6.6-1.3c-2.5-1-4.8-2.4-6.8-4.2l-0.6-0.5l2.9-2.9l0.5,0.5c1.6,1.5,3.5,2.6,5.5,3.4
	c3.6,1.4,7.6,1.3,11-0.4l-1.4-1.9l9.2-1.2l-3.6,8.6l-1.6-2.2c-2.4,1.3-5,2-7.7,2.2L27.8,52.5z M15.9,46.4c1.7,1.5,3.7,2.6,5.8,3.5
	c1.9,0.8,4,1.2,6.1,1.2h0.8c2.7-0.1,5.2-0.9,7.5-2.3l0.6-0.3l0.9,1.1l1.6-3.8L35,46.3l1,1.2l-0.7,0.4c-4,2.3-8.8,2.7-13.1,0.9
	c-2-0.8-3.8-1.9-5.5-3.2L15.9,46.4z"/>
</svg>
