<?xml version="1.0" encoding="utf-8"?>
<!-- Generator: Adobe Illustrator 25.3.1, SVG Export Plug-In . SVG Version: 6.00 Build 0)  -->
<svg version="1.1" id="Layer_1" xmlns="http://www.w3.org/2000/svg" xmlns:xlink="http://www.w3.org/1999/xlink" x="0px" y="0px"
	 viewBox="0 0 57 57" style="enable-background:new 0 0 57 57;" xml:space="preserve">
<style type="text/css">
	.st0{fill:#1E2E45;}
	.st1{fill:none;stroke:#1E2E45;stroke-width:2;stroke-miterlimit:10;}
	.st2{fill:none;stroke:#1E2E45;stroke-miterlimit:10;}
	.st3{fill:none;stroke:#1E2E45;stroke-width:0.75;stroke-miterlimit:10;}
</style>
<polygon class="st0" points="12.8,29.3 14.5,29.3 14.5,18.1 12.8,19.9 "/>
<polygon class="st0" points="16.3,19.9 16.3,29.3 18.1,29.3 18.1,19.9 17.2,20.8 "/>
<polygon class="st0" points="9.2,29.3 11,29.3 11,21.7 9.2,23.4 "/>
<polygon class="st0" points="19.8,29.3 21.6,29.3 21.6,16.4 19.8,18.1 "/>
<rect x="12.5" y="49.2" class="st0" width="7.5" height="1.9"/>
<path class="st1" d="M4.1,1.3h24.4c1.6,0,2.8,1.3,2.8,2.8v48.8c0,1.6-1.3,2.8-2.8,2.8H4.1c-1.6,0-2.8-1.3-2.8-2.8V4.1
	C1.3,2.5,2.5,1.3,4.1,1.3z"/>
<rect x="15.4" y="3.2" class="st0" width="5.6" height="1.9"/>
<rect x="11.6" y="3.2" class="st0" width="1.9" height="1.9"/>
<path class="st2" d="M12.6,47.3h7.5c1,0,1.9,0.8,1.9,1.9V51c0,1-0.8,1.9-1.9,1.9h-7.5c-1,0-1.9-0.8-1.9-1.9v-1.9
	C10.7,48.1,11.5,47.3,12.6,47.3z"/>
<path class="st3" d="M6.6,8H26c1.5,0,2.7,1.2,2.7,2.7v31.9c0,1.5-1.2,2.7-2.7,2.7H6.6c-1.5,0-2.7-1.2-2.7-2.7V10.7
	C3.9,9.2,5.1,8,6.6,8z"/>
<path class="st3" d="M6.5,9.8H26c0.5,0,0.9,0.4,0.9,0.9v31.9c0,0.5-0.4,0.9-0.9,0.9H6.5c-0.5,0-0.9-0.4-0.9-0.9V10.7
	C5.7,10.2,6.1,9.8,6.5,9.8z"/>
<rect x="7.4" y="39.9" class="st0" width="1.8" height="1.8"/>
<rect x="7.4" y="36.4" class="st0" width="1.8" height="1.8"/>
<rect x="7.4" y="32.8" class="st0" width="1.8" height="1.8"/>
<rect x="11" y="39.9" class="st0" width="14.2" height="1.8"/>
<rect x="11" y="36.4" class="st0" width="14.2" height="1.8"/>
<rect x="11" y="32.8" class="st0" width="14.2" height="1.8"/>
<polygon class="st2" points="25.1,29.3 25.1,31 7.4,31 7.4,11.6 9.2,11.6 9.2,20.9 14.5,15.6 17.2,18.3 24.5,10.9 25.8,12.2 
	23.4,14.6 23.4,29.3 "/>
<path class="st0" d="M37.8,39.3c-0.8,0-1.4-0.6-1.5-1.3v-2c0-0.8,0.7-1.5,1.5-1.5h1.5v1.9h0.9v-1.8h2.9v1.9h0.9v-1.9h2.9v1.9h0.9
	v-1.9h2.9v1.8h0.8v-1.9h1.5c0.8,0,1.5,0.7,1.5,1.5v1.8c0,0.8-0.7,1.5-1.5,1.5C52.9,39.3,37.8,39.3,37.8,39.3z M37.8,35.6
	c-0.3,0-0.5,0.2-0.5,0.4c0,0,0,0,0,0v1.9c0,0.2,0.2,0.4,0.5,0.4c0,0,0,0,0,0h15c0.3,0,0.5-0.2,0.5-0.5V36c0-0.3-0.2-0.5-0.5-0.5
	h-0.5v1.9h-2.8v-1.8h-0.9v1.9h-2.9v-1.9H45v1.9h-2.9v-1.9h-0.8v1.9h-2.9v-1.9H37.8z"/>
<path class="st0" d="M45.4,15.8c-5,0-9,4-9,9s4,9,9,9s9-4,9-9S50.4,15.8,45.4,15.8L45.4,15.8z M45.4,32.7c-4.4,0-7.9-3.6-7.9-7.9
	s3.6-7.9,7.9-7.9c4.4,0,7.9,3.5,7.9,7.9C53.3,29.1,49.8,32.7,45.4,32.7z"/>
<path class="st0" d="M46.9,23.4h2.8v-0.5c0-1.6-1.2-3-2.8-3.3v-1.9h-2.9v1.9h-2.8v3.3c0,1.6,1.2,3,2.8,3.3h-2.8v0.5
	c0,1.6,1.2,3,2.8,3.3v1.9h2.9V30h2.8v-3.4C49.7,25,48.5,23.6,46.9,23.4z M48.7,29h-2.8v1.8H45V29h-0.5c-1.1,0-2-0.8-2.2-1.8h0.9
	c0.2,0.6,0.8,1,1.4,1h3.3v-1.6c0-0.8-0.6-1.5-1.5-1.5h-2c-1.3,0-2.3-1-2.3-2.3v-2.3H45v-1.9h0.9v1.9h0.5c1.1,0,2,0.7,2.2,1.8h-0.9
	c-0.2-0.6-0.8-1-1.4-1H43v1.5c0,0.8,0.7,1.5,1.5,1.5c0,0,0,0,0,0h1.9c1.3,0,2.3,1,2.3,2.3V29z M44,26.6v-0.5c0.1,0,0.3,0,0.4,0h1.9
	c0.3,0,0.5,0.2,0.5,0.5v0.5h-2.3C44.2,27.1,44,26.9,44,26.6C44,26.6,44,26.6,44,26.6z M46.7,22.9v0.5c-0.1,0-0.3,0-0.4,0h-1.8
	c-0.3,0-0.5-0.2-0.5-0.5v-0.5h2.3C46.6,22.4,46.8,22.6,46.7,22.9L46.7,22.9z"/>
<path class="st0" d="M54.8,45h-15c-0.8,0-1.5-0.7-1.5-1.5v-1.9c0-0.8,0.7-1.5,1.5-1.5h1.5v1.9h0.8v-1.9H45v1.9h0.9v-1.9h2.9v1.9h0.9
	v-1.9h2.9v1.9h0.8v-1.9h1.5c0.8,0,1.5,0.6,1.5,1.4v1.9C56.2,44.4,55.6,45,54.8,45z M39.8,41.2c-0.3,0-0.5,0.2-0.5,0.4c0,0,0,0,0,0
	v1.9c0,0.3,0.2,0.5,0.5,0.5h15c0.3,0,0.5-0.2,0.5-0.5v-1.9c0-0.2-0.2-0.4-0.5-0.4h-0.5v1.9h-2.8v-1.9h-0.9v1.9h-2.9v-1.9h-0.9v1.9
	h-2.9v-1.9h-0.9v1.9h-2.9v-1.9L39.8,41.2z"/>
<path class="st0" d="M54.8,56.2h-15c-0.8,0-1.5-0.7-1.5-1.5v0v-1.8c0-0.8,0.7-1.5,1.5-1.5h1.5v1.9h0.8v-1.9H45v1.9h0.9v-1.9h2.9v1.9
	h0.9v-1.9h2.9v1.9h0.8v-1.9h1.5c0.8,0,1.4,0.6,1.5,1.4v1.9C56.3,55.6,55.6,56.2,54.8,56.2C54.8,56.2,54.8,56.2,54.8,56.2z
	 M39.8,52.5c-0.3,0-0.5,0.2-0.5,0.5c0,0,0,0,0,0v1.8c0,0.3,0.2,0.5,0.5,0.5c0,0,0,0,0,0h15c0.3,0,0.5-0.2,0.5-0.5v-1.8
	c0-0.2-0.2-0.4-0.5-0.4h-0.5v1.9h-2.8v-1.9h-0.9v1.9h-2.9v-1.9h-0.9v1.9h-2.9v-1.9h-0.9v1.9h-2.9v-1.9H39.8z"/>
<path class="st0" d="M53.4,50.7H37.8c-0.8,0-1.5-0.7-1.5-1.5v-1.9c0-0.8,0.7-1.5,1.5-1.5h1.5v1.9h0.9v-1.9h2.9v1.9h0.9v-1.9h2.9v1.9
	h0.9v-1.9h2.9v1.8h0.8v-1.9h1.5c0.8,0,1.5,0.7,1.5,1.5v1.8c0,0.6-0.4,1.2-1,1.4L53.4,50.7z M37.8,46.8c-0.3,0-0.5,0.2-0.5,0.5
	c0,0,0,0,0,0v1.9c0,0.3,0.2,0.5,0.5,0.5c0,0,0,0,0,0h14.5l0.5-0.1c0.3,0,0.5-0.2,0.5-0.5v-1.9c0-0.3-0.2-0.5-0.5-0.5h-0.5v1.9h-2.8
	v-1.9h-0.9v1.9h-2.9v-1.9H45v1.9h-2.9v-1.9h-0.8v1.9h-2.9v-1.9H37.8z"/>
</svg>
