<?xml version="1.0" encoding="utf-8"?>
<!-- Generator: Adobe Illustrator 25.3.1, SVG Export Plug-In . SVG Version: 6.00 Build 0)  -->
<svg version="1.1" id="Layer_1" xmlns="http://www.w3.org/2000/svg" xmlns:xlink="http://www.w3.org/1999/xlink" x="0px" y="0px"
	 viewBox="0 0 56 56" style="enable-background:new 0 0 56 56;" xml:space="preserve">
<style type="text/css">
	.st0{fill:none;stroke:#1E2E45;stroke-width:2;stroke-miterlimit:10;}
</style>
<path class="st0" d="M4.3,17.3h47.5c0.6,0.1,1.1-0.4,1.2-1c0,0,0,0,0,0l0,0v-5.8c0-0.6-0.6-1-1.2-1h-9.2l-14-5.7
	c-0.3-0.1-0.7-0.1-1.1,0l-14,5.7H4.3c-0.6-0.1-1.1,0.4-1.2,1c0,0,0,0,0,0l0,0v5.8C3.2,16.9,3.7,17.4,4.3,17.3z"/>
<path class="st0" d="M54.1,44.4h-3.6v-1c-0.1-0.6-0.6-1-1.2-1H6.7c-0.6,0-1.1,0.4-1.2,1v1H1.9c-0.6-0.1-1.1,0.4-1.2,1v5.9
	c0,0.6,0.6,1,1.1,1h52.2c0.6,0.1,1.1-0.4,1.2-1c0,0,0,0,0,0v-5.9C55.2,44.8,54.7,44.4,54.1,44.4C54.1,44.4,54.1,44.4,54.1,44.4
	L54.1,44.4z"/>
<path class="st0" d="M6.7,21.2c-0.6-0.1-1.1,0.4-1.2,1c0,0,0,0,0,0v15.5c0,0.6,0.6,1,1.2,1h9.5c0.6,0.1,1.1-0.4,1.2-1c0,0,0,0,0,0
	l0,0V22.1c0-0.6-0.6-1-1.2-1l0,0L6.7,21.2z"/>
<path class="st0" d="M23.2,21.2c-0.6-0.1-1.1,0.4-1.2,1c0,0,0,0,0,0v15.5c0,0.6,0.6,1,1.1,1h9.5c0.6,0.1,1.1-0.4,1.2-1c0,0,0,0,0,0
	V22.1c0-0.6-0.6-1-1.2-1l0,0L23.2,21.2z"/>
<path class="st0" d="M39.9,21.2c-0.6-0.1-1.1,0.4-1.2,1c0,0,0,0,0,0l0,0v15.5c0,0.6,0.6,1,1.2,1h9.5c0.6,0.1,1.1-0.4,1.2-1
	c0,0,0,0,0,0V22.1c0-0.6-0.6-1-1.2-1l0,0L39.9,21.2z"/>
</svg>
