<?xml version="1.0" encoding="utf-8"?>
<!-- Generator: Adobe Illustrator 25.3.1, SVG Export Plug-In . SVG Version: 6.00 Build 0)  -->
<svg version="1.1" id="Layer_1" xmlns="http://www.w3.org/2000/svg" xmlns:xlink="http://www.w3.org/1999/xlink" x="0px" y="0px"
	 viewBox="0 0 56 56" style="enable-background:new 0 0 56 56;" xml:space="preserve">
<style type="text/css">
	.st0{fill-rule:evenodd;clip-rule:evenodd;fill:#1E2E45;stroke:#1E2E45;stroke-width:0.25;stroke-miterlimit:10;}
	.st1{fill:#1E2E45;stroke:#1E2E45;stroke-width:0.25;stroke-miterlimit:10;}
</style>
<path class="st0" d="M37.7,23.9L37.7,23.9l-0.6,7.5c0,0.4,0.3,0.7,0.7,0.7s0.7-0.3,0.7-0.7L37.7,23.9L37.7,23.9z"/>
<path class="st1" d="M50.9,54.3H5.1C2.3,54.3,0,52,0,49.2v-4.1h23.5l2.2,3h4.6l2.2-3H56v4.1C56,52,53.7,54.3,50.9,54.3z M0.8,45.9
	v3.3c0,2.4,2,4.3,4.3,4.3h45.7c2.4,0,4.3-1.9,4.3-4.3v-3.2H32.9l-2.2,3h-5.4l-2.2-3H0.8z M50.8,51.9H5.1c-1.5,0-2.7-1.2-2.7-2.7
	v-1.7h19.8l2.2,3h7.1l2.2-3h19.8v1.6C53.5,50.7,52.3,51.9,50.8,51.9L50.8,51.9z M3.3,48.3v0.8c0,1,0.8,1.9,1.9,1.9h18.7l-2-2.8H3.3z
	 M34.1,48.3l-2,2.8h18.7c1.1,0,1.9-0.9,1.9-1.9v-0.8H34.1z"/>
<path class="st1" d="M8,40.1c-1.1,0-2-0.8-2-1.9V15.1c0-1.1,0.9-2,2-2h19.6l0.1,0.3c0.3,1.3,0.8,2.5,1.5,3.6l0.4,0.6H12v0.5h18
	l0.1,0.1c1.3,1.3,2.9,2.3,4.7,2.8l0.8,0.2l-1,0.8H12v0.5h22.3l-0.2,2.8c-0.2,1.6-0.3,3.4-0.4,5.2v0.4H12.1v0.4h21.5v0.4
	c0.1,2.1,1.9,3.7,4,3.6l0,0c2.1,0.1,3.9-1.5,4-3.6c0,0,0,0,0,0v-0.4H44v-0.5h-2.4v-0.4c-0.1-1.6-0.2-3.3-0.4-5.1L40.9,22l-1.2-0.9
	l0.8-0.2c3.5-1.1,6.1-3.9,6.9-7.5l0.1-0.3H48c1.1,0,2,0.9,2,2v23c0,1.1-0.9,2-2,2L8,40.1L8,40.1z M8,14c-0.7,0-1.2,0.5-1.2,1.2
	c0,0,0,0,0,0v23c0,0.6,0.6,1.2,1.2,1.1h40c0.7,0,1.2-0.5,1.2-1.2c0,0,0,0,0,0v-23c0-0.6-0.6-1.2-1.2-1.2c-0.9,3.4-3.3,6.2-6.6,7.5
	l0.3,0.2v0.8l0.3,2.8c0.2,1.7,0.3,3.2,0.4,4.8h2.4v2h-2.4c-0.3,2.4-2.4,4.1-4.8,4l0,0c-2.4,0.1-4.4-1.6-4.7-4H11.4v-2h21.6
	c0.1-1.7,0.3-3.4,0.4-4.9l0.1-2H11.3v-2h21.8c-1.3-0.6-2.4-1.4-3.4-2.4H11.2v-2h16.9C27.6,15.9,27.2,15,27,14H8z M26.4,36.6H11.4
	v-2.1h15.1L26.4,36.6z M12.1,35.8h13.5v-0.5H12.1L12.1,35.8z M28.3,27.7H11.2v-2h17.1L28.3,27.7z M12,26.9h15.5v-0.5H12V26.9z"/>
<path class="st1" d="M7.1,44.1C4.3,44.1,2,41.8,2,39V14.6c0-2.8,2.3-5.1,5.1-5.1h20.4l0,0.4c-0.1,0.8-0.1,1.6,0,2.3l0,0.4H7.2
	c-1,0-1.9,0.9-1.9,1.9V39c0,1,0.8,1.9,1.9,1.9h41.8c1,0,1.9-0.9,1.9-1.9V14.6c0-1-0.9-1.9-1.9-1.9H48v-1.5c0-0.4,0-0.8-0.1-1.3V9.5
	h1c2.8,0.1,5,2.3,5.1,5.1V39c0,2.8-2.3,5.1-5.1,5.1L7.1,44.1z M7.1,10.3c-2.4,0-4.3,2-4.3,4.3V39c0,2.4,2,4.3,4.3,4.3h41.7
	c2.4,0,4.3-2,4.3-4.3V14.6c0-2.4-2-4.3-4.3-4.3h-0.1c0,0.3,0,0.6,0,0.9v0.7h0.1c1.5,0,2.7,1.2,2.7,2.7V39c0,1.5-1.2,2.7-2.7,2.7H7.1
	c-1.5,0-2.7-1.2-2.7-2.7V14.6c0-1.5,1.2-2.7,2.7-2.7h19.5c0-0.5,0-1.1,0-1.6L7.1,10.3z"/>
<path class="st1" d="M37.7,34.9c-1.9,0.1-3.5-1.4-3.5-3.3c0-0.1,0-0.1,0-0.2c0.1-1.9,0.3-3.9,0.5-5.9c0.1-1,0.2-2,0.3-3v-0.2
	l1.2-0.8v-0.7c-5.2-0.9-8.7-5.9-7.8-11.1c0.3-1.5,0.9-3,1.8-4.2c1.5-2,3.8-3.4,6.4-3.7c5.3-0.6,10,3.2,10.6,8.5
	c0.6,5-2.8,9.5-7.7,10.5v0.7l1.2,0.9v0.2c0.1,1,0.2,2,0.3,3c0.2,1.9,0.4,3.9,0.5,5.9c0.1,1.9-1.4,3.5-3.3,3.6
	C37.8,34.9,37.7,34.9,37.7,34.9z M35.7,22.8c-0.1,0.9-0.2,1.9-0.2,2.8c-0.2,1.9-0.4,3.9-0.5,5.8c0.1,1.5,1.4,2.7,2.9,2.6
	c1.4-0.1,2.5-1.2,2.6-2.6c-0.1-1.9-0.3-3.9-0.5-5.8c-0.1-0.9-0.2-1.9-0.2-2.8l-1.2-0.9v-1.8l0.3,0c4.8-0.7,8.2-5.1,7.6-10
	c-0.7-4.8-5.1-8.2-10-7.6C34.1,2.9,32,4.1,30.6,6c-1.4,1.9-2.1,4.2-1.7,6.5c0.5,3.9,3.6,7,7.6,7.6l0.3,0v1.7L35.7,22.8z M37.6,18.6
	c-4,0-7.2-3.2-7.2-7.2c0-4,3.2-7.2,7.2-7.2l0,0c4,0,7.2,3.2,7.2,7.2C44.7,15.3,41.5,18.6,37.6,18.6z M37.5,5c-3.5,0-6.4,2.9-6.4,6.4
	c0,3.5,2.9,6.4,6.4,6.4c3.5,0,6.4-2.9,6.4-6.4C43.9,7.9,41,5,37.5,5C37.5,5,37.5,5,37.5,5z"/>
</svg>
